<svg width="512" height="512" viewBox="0 0 512 512" fill="none" xmlns="http://www.w3.org/2000/svg">
  <rect width="512" height="512" rx="128" fill="#f8f3ea"/>
  <circle cx="256" cy="256" r="184" fill="#fffaf1" stroke="#c8a968" stroke-width="10"/>
  <circle cx="256" cy="256" r="150" stroke="#d8d2c8" stroke-width="2" stroke-dasharray="10 16"/>
  <path d="M154 302c27 28 78 32 111 8 36 24 85 14 110-22 42 2 77-29 77-70 0-39-32-71-72-71-9 0-18 2-26 5-20-36-58-60-102-60-53 0-98 35-112 82-37 4-65 34-65 70 0 22 10 42 26 55" stroke="#d8d2c8" stroke-width="18" stroke-linecap="round" stroke-linejoin="round"/>
  <text x="256" y="310" text-anchor="middle" font-family="serif" font-size="170" font-weight="700" fill="#9f4f4a">云</text>
  <path d="M363 126c21 14 36 35 42 61" stroke="#c8a968" stroke-width="8" stroke-linecap="round"/>
  <path d="M118 377c49 34 102 50 159 45" stroke="#c8a968" stroke-width="5" stroke-linecap="round" opacity=".58"/>
</svg>
