<svg width="1200" height="630" viewBox="0 0 1200 630" fill="none" xmlns="http://www.w3.org/2000/svg">
  <rect width="1200" height="630" fill="#f8f3ea"/>
  <circle cx="985" cy="120" r="220" fill="#fffaf1" opacity=".9"/>
  <circle cx="190" cy="530" r="240" fill="#efe7db" opacity=".55"/>
  <circle cx="975" cy="484" r="120" fill="#9f4f4a" opacity=".08"/>
  <path d="M0 122c120-34 238-31 355 9 116 40 234 41 354 3 146-46 302-34 491 37" stroke="#d8d2c8" stroke-width="3" opacity=".72"/>
  <path d="M0 183c129-30 246-23 352 21 111 46 226 47 344 2 145-55 308-48 504 22" stroke="#fffaf1" stroke-width="18" opacity=".72"/>
  <path d="M835 128c38 28 63 66 73 112" stroke="#c8a968" stroke-width="5" stroke-linecap="round"/>
  <circle cx="924" cy="268" r="112" fill="#fffaf1" stroke="#c8a968" stroke-width="4"/>
  <circle cx="924" cy="268" r="88" stroke="#d8d2c8" stroke-width="2" stroke-dasharray="8 12"/>
  <path d="M840 294c22 24 64 28 92 8 30 20 70 11 91-19 35 1 64-24 64-58 0-33-27-59-60-59-8 0-15 1-22 4-17-30-48-50-85-50-44 0-81 29-93 68-31 3-54 28-54 58 0 18 8 35 22 46" stroke="#d8d2c8" stroke-width="10" stroke-linecap="round" stroke-linejoin="round"/>
  <text x="924" y="306" text-anchor="middle" font-family="serif" font-size="118" font-weight="700" fill="#9f4f4a">云</text>
  <text x="96" y="178" font-family="serif" font-size="34" letter-spacing="8" fill="#9f4f4a">云酥记 YUN SU JI</text>
  <text x="96" y="294" font-family="serif" font-size="82" font-weight="700" fill="#24201d">云上酥香，一口东方</text>
  <text x="100" y="376" font-family="Arial, sans-serif" font-size="34" fill="#5f5650">温哥华新中式手作甜点</text>
  <rect x="98" y="438" width="398" height="58" rx="29" fill="#fffaf1" stroke="#c8a968" stroke-width="2"/>
  <text x="130" y="477" font-family="Arial, sans-serif" font-size="25" fill="#9f4f4a">2026 年 7-8 月预约意向收集中</text>
  <path d="M96 535h330" stroke="#c8a968" stroke-width="3" stroke-linecap="round"/>
  <text x="98" y="573" font-family="Arial, sans-serif" font-size="22" fill="#7a6f66">A gentle handmade Chinese pastry brand preparing for Vancouver.</text>
</svg>
