<svg width="1200" height="630" viewBox="0 0 1200 630" fill="none" xmlns="http://www.w3.org/2000/svg">
  <rect width="1200" height="630" fill="#f8f1e6"/>
  <circle cx="980" cy="120" r="220" fill="#fffaf2" opacity=".92"/>
  <circle cx="188" cy="528" r="245" fill="#efe6d8" opacity=".62"/>
  <circle cx="960" cy="470" r="138" fill="#6f9b83" opacity=".12"/>
  <path d="M0 122c120-34 238-31 355 9 116 40 234 41 354 3 146-46 302-34 491 37" stroke="#d8d2c8" stroke-width="3" opacity=".72"/>
  <path d="M0 183c129-30 246-23 352 21 111 46 226 47 344 2 145-55 308-48 504 22" stroke="#fffaf2" stroke-width="18" opacity=".72"/>
  <path d="M835 128c38 28 63 66 73 112" stroke="#c9ad72" stroke-width="5" stroke-linecap="round"/>
  <circle cx="924" cy="268" r="112" fill="#fffaf2" stroke="#c9ad72" stroke-width="4"/>
  <circle cx="924" cy="268" r="88" stroke="#6f9b83" stroke-width="2" stroke-dasharray="8 12" opacity=".62"/>
  <path d="M840 294c22 24 64 28 92 8 30 20 70 11 91-19 35 1 64-24 64-58 0-33-27-59-60-59-8 0-15 1-22 4-17-30-48-50-85-50-44 0-81 29-93 68-31 3-54 28-54 58 0 18 8 35 22 46" stroke="#d8d2c8" stroke-width="10" stroke-linecap="round" stroke-linejoin="round"/>
  <text x="924" y="306" text-anchor="middle" font-family="serif" font-size="118" font-weight="700" fill="#163c33">云</text>
  <text x="96" y="178" font-family="serif" font-size="34" letter-spacing="8" fill="#6f9b83">云酥坊 yunsucake</text>
  <text x="96" y="294" font-family="serif" font-size="78" font-weight="700" fill="#163c33">温哥华手作新中式酥点</text>
  <text x="100" y="376" font-family="Arial, sans-serif" font-size="32" fill="#735b43">蛋黄酥 · 牡丹花酥 · 中秋月饼礼盒预告</text>
  <rect x="98" y="438" width="430" height="58" rx="29" fill="#fffaf2" stroke="#c9ad72" stroke-width="2"/>
  <text x="130" y="477" font-family="Arial, sans-serif" font-size="25" fill="#163c33">2026 年 7-8 月试吃与礼盒意向收集中</text>
  <path d="M96 535h330" stroke="#c9ad72" stroke-width="3" stroke-linecap="round"/>
  <text x="98" y="573" font-family="Arial, sans-serif" font-size="22" fill="#735b43">Neo-Chinese handmade pastries for Vancouver.</text>
</svg>
